<svg viewBox="0 0 400 300" xmlns="http://www.w3.org/2000/svg">
  <!-- Background -->
  <rect width="400" height="300" fill="#FFFFFF"/>
  
  <!-- Circular beige background block -->
  <circle cx="200" cy="160" r="130" fill="#F5E6D3"/>
  <circle cx="200" cy="160" r="128" fill="#FAF3EB" stroke="#D4C4B0" stroke-width="2"/>
  
  <!-- Decorative dots pattern -->
  <g fill="#E8DDD0" opacity="0.6">
    <circle cx="80" cy="80" r="3"/>
    <circle cx="95" cy="95" r="2"/>
    <circle cx="320" cy="85" r="3"/>
    <circle cx="305" cy="70" r="2"/>
    <circle cx="330" cy="230" r="2"/>
    <circle cx="70" cy="240" r="2"/>
  </g>
  
  <!-- Taiwan Flag (top left) -->
  <g transform="translate(45, 35)">
    <rect x="0" y="0" width="35" height="24" fill="#FFFFFF" stroke="#333333" stroke-width="1.5"/>
    <rect x="0" y="0" width="12" height="12" fill="#0066CC"/>
    <circle cx="6" cy="6" r="4" fill="#DE0023"/>
    <!-- Flag pole -->
    <rect x="-3" y="-3" width="3" height="30" fill="#8B7355"/>
  </g>
  
  <!-- Japan Flag (top right) -->
  <g transform="translate(320, 35)">
    <rect x="0" y="0" width="35" height="24" fill="#FFFFFF" stroke="#333333" stroke-width="1.5"/>
    <circle cx="17.5" cy="12" r="7" fill="#BC002D"/>
    <!-- Flag pole -->
    <rect x="-3" y="-3" width="3" height="30" fill="#8B7355"/>
  </g>
  
  <!-- Small decorative hearts -->
  <path d="M55 180 C55 175 60 172 63 175 C66 172 71 175 71 180 C71 185 63 190 63 190 C63 190 55 185 55 180Z" fill="#FFB6C1" opacity="0.6"/>
  <path d="M340 160 C340 156 344 154 346 156 C348 154 352 156 352 160 C352 164 346 168 346 168 C346 168 340 164 340 160Z" fill="#FFB6C1" opacity="0.6"/>
  
  <!-- TAIWAN text (retro style) -->
  <text x="200" y="55" font-family="Arial, sans-serif" font-size="11" font-weight="bold" fill="#333333" text-anchor="middle" letter-spacing="2">PC級生 TAIWAN×JAPAN</text>
  
  <!-- MALE CHARACTER (Taiwan - Left Side) -->
  <g transform="translate(105, 85)">
    <!-- Green backpack strap -->
    <path d="M25 45 Q15 50 10 90 L15 92 Q20 55 28 48" fill="#4A7C59" stroke="#2D4A35" stroke-width="2"/>
    
    <!-- Neck -->
    <rect x="28" y="55" width="20" height="15" fill="#F5D0C5" stroke="#333333" stroke-width="1.5"/>
    
    <!-- Body/Shirt (white) -->
    <path d="M10 70 L10 160 L75 160 L75 70 Q60 60 42 60 Q25 60 10 70Z" fill="#FFFFFF" stroke="#333333" stroke-width="2.5"/>
    
    <!-- T-shirt text TAIWAN -->
    <text x="42" y="105" font-family="Arial Black, sans-serif" font-size="12" font-weight="bold" fill="#0066CC" text-anchor="middle">TAIWAN</text>
    <text x="42" y="118" font-family="Arial, sans-serif" font-size="8" fill="#666666" text-anchor="middle">台湾</text>
    
    <!-- Arms -->
    <path d="M10 75 Q-5 90 5 130 L15 128 Q8 95 15 80" fill="#F5D0C5" stroke="#333333" stroke-width="2"/>
    <path d="M75 75 Q90 90 80 125 L70 127 Q82 95 75 80" fill="#F5D0C5" stroke="#333333" stroke-width="2"/>
    
    <!-- Hands -->
    <ellipse cx="10" cy="130" rx="10" ry="8" fill="#F5D0C5" stroke="#333333" stroke-width="1.5"/>
    <ellipse cx="78" cy="127" rx="10" ry="8" fill="#F5D0C5" stroke="#333333" stroke-width="1.5"/>
    
    <!-- Bubble Tea Cup -->
    <g transform="translate(78, 105)">
      <path d="M0 0 L5 45 L35 45 L40 0 Z" fill="#FFFFFF" stroke="#333333" stroke-width="2"/>
      <ellipse cx="20" cy="2" rx="20" ry="5" fill="#FFFFFF" stroke="#333333" stroke-width="2"/>
      <!-- Straw -->
      <rect x="18" y="-35" width="4" height="40" fill="#FF6B6B"/>
      <rect x="17" y="-40" width="6" height="8" fill="#FF6B6B"/>
      <!-- Tapioca pearls -->
      <circle cx="12" cy="30" r="4" fill="#4A3728"/>
      <circle cx="22" cy="35" r="4" fill="#4A3728"/>
      <circle cx="28" cy="28" r="4" fill="#4A3728"/>
      <circle cx="17" cy="22" r="4" fill="#4A3728"/>
      <circle cx="25" cy="18" r="3" fill="#4A3728"/>
      <!-- Tea color -->
      <path d="M3 10 L6 42 L34 42 L37 10 Z" fill="#C4A484" opacity="0.5"/>
    </g>
    
    <!-- Green Passport on waist -->
    <g transform="translate(15, 145)">
      <rect x="0" y="0" width="22" height="28" rx="2" fill="#2E5A3C" stroke="#1A3D28" stroke-width="2"/>
      <rect x="4" y="5" width="14" height="10" fill="#D4AF37"/>
      <text x="11" y="13" font-family="Arial, sans-serif" font-size="6" fill="#1A3D28" text-anchor="middle">護照</text>
    </g>
    
    <!-- Pants -->
    <path d="M12 158 L12 230 L35 230 L38 165 L45 165 L48 230 L70 230 L70 158" fill="#3D3D5C" stroke="#333333" stroke-width="2"/>
    
    <!-- Shoes -->
    <ellipse cx="25" cy="235" rx="15" ry="8" fill="#333333" stroke="#222222" stroke-width="1.5"/>
    <ellipse cx="58" cy="235" rx="15" ry="8" fill="#333333" stroke="#222222" stroke-width="1.5"/>
    
    <!-- Head -->
    <ellipse cx="42" cy="35" rx="32" ry="35" fill="#F5D0C5" stroke="#333333" stroke-width="2.5"/>
    
    <!-- Hair (short dark hair) -->
    <path d="M10 30 Q10 5 42 5 Q74 5 74 30 Q74 20 65 15 Q55 8 42 8 Q29 8 19 15 Q10 20 10 30Z" fill="#2C1810" stroke="#333333" stroke-width="2"/>
    <path d="M12 28 Q12 10 42 10 Q72 10 72 28 Q65 22 55 18 Q42 14 29 18 Q18 22 12 28Z" fill="#3D2317"/>
    <!-- Hair highlight -->
    <path d="M25 12 Q35 8 45 12" stroke="#5D4037" stroke-width="2" fill="none"/>
    
    <!-- Face features -->
    <!-- Large anime eyes -->
    <ellipse cx="30" cy="38" rx="8" ry="9" fill="#FFFFFF" stroke="#333333" stroke-width="1.5"/>
    <ellipse cx="54" cy="38" rx="8" ry="9" fill="#FFFFFF" stroke="#333333" stroke-width="1.5"/>
    <!-- Pupils -->
    <ellipse cx="31" cy="39" rx="5" ry="6" fill="#3D2317"/>
    <ellipse cx="55" cy="39" rx="5" ry="6" fill="#3D2317"/>
    <!-- Eye highlights -->
    <circle cx="33" cy="36" r="2" fill="#FFFFFF"/>
    <circle cx="57" cy="36" r="2" fill="#FFFFFF"/>
    <!-- Eyebrows -->
    <path d="M22 28 Q30 26 38 28" stroke="#2C1810" stroke-width="2" fill="none"/>
    <path d="M46 28 Q54 26 62 28" stroke="#2C1810" stroke-width="2" fill="none"/>
    <!-- Nose -->
    <path d="M42 45 L40 50 L44 50" stroke="#D4A59A" stroke-width="1.5" fill="none"/>
    <!-- Mouth (smile) -->
    <path d="M35 58 Q42 64 49 58" stroke="#CC7777" stroke-width="2" fill="none"/>
    <!-- Blush -->
    <ellipse cx="22" cy="50" rx="5" ry="3" fill="#FFB6C1" opacity="0.4"/>
    <ellipse cx="62" cy="50" rx="5" ry="3" fill="#FFB6C1" opacity="0.4"/>
    
    <!-- Ears -->
    <ellipse cx="10" cy="38" rx="5" ry="8" fill="#F5D0C5" stroke="#333333" stroke-width="1.5"/>
    <ellipse cx="74" cy="38" rx="5" ry="8" fill="#F5D0C5" stroke="#333333" stroke-width="1.5"/>
  </g>
  
  <!-- FEMALE CHARACTER (Japan - Right Side) -->
  <g transform="translate(215, 85)">
    <!-- Neck -->
    <rect x="28" y="55" width="20" height="15" fill="#F5D0C5" stroke="#333333" stroke-width="1.5"/>
    
    <!-- Body/Shirt (red) -->
    <path d="M10 70 L5 160 L75 160 L70 70 Q55 60 38 60 Q22 60 10 70Z" fill="#CC3333" stroke="#333333" stroke-width="2.5"/>
    
    <!-- T-shirt text JAPAN -->
    <text x="38" y="100" font-family="Arial Black, sans-serif" font-size="11" font-weight="bold" fill="#FFFFFF" text-anchor="middle">JAPAN</text>
    <text x="38" y="113" font-family="Arial, sans-serif" font-size="8" fill="#FFCCCC" text-anchor="middle">日本</text>
    
    <!-- Arms -->
    <path d="M10 75 Q-5 95 10 130 L20 127 Q8 98 15 80" fill="#F5D0C5" stroke="#333333" stroke-width="2"/>
    <path d="M70 75 Q85 90 75 125 L65 127 Q78 95 70 80" fill="#F5D0C5" stroke="#333333" stroke-width="2"/>
    
    <!-- Hands -->
    <ellipse cx="15" cy="130" rx="10" ry="8" fill="#F5D0C5" stroke="#333333" stroke-width="1.5"/>
    <ellipse cx="73" cy="128" rx="10" ry="8" fill="#F5D0C5" stroke="#333333" stroke-width="1.5"/>
    
    <!-- Skirt -->
    <path d="M5 155 L2 215 L78 215 L75 155" fill="#FFE4E1" stroke="#333333" stroke-width="2"/>
    <!-- Skirt pattern -->
    <path d="M15 155 L12 215" stroke="#FFB6C1" stroke-width="1"/>
    <path d="M38 155 L38 215" stroke="#FFB6C1" stroke-width="1"/>
    <path d="M62 155 L65 215" stroke="#FFB6C1" stroke-width="1"/>
    
    <!-- Shoes -->
    <ellipse cx="22" cy="220" rx="14" ry="7" fill="#333333" stroke="#222222" stroke-width="1.5"/>
    <ellipse cx="58" cy="220" rx="14" ry="7" fill="#333333" stroke="#222222" stroke-width="1.5"/>
    
    <!-- Head -->
    <ellipse cx="38" cy="35" rx="30" ry="33" fill="#F5D0C5" stroke="#333333" stroke-width="2.5"/>
    
    <!-- Hair (short wavy dark hair) -->
    <path d="M8 35 Q5 10 38 5 Q71 10 68 35 Q70 25 60 18 Q50 8 38 8 Q26 8 16 18 Q6 25 8 35Z" fill="#1A0F0A" stroke="#333333" stroke-width="2"/>
    <!-- Hair waves -->
    <path d="M8 30 Q12 25 15 30 Q18 35 22 30 Q26 25 30 30" stroke="#3D2317" stroke-width="2" fill="none"/>
    <path d="M46 30 Q50 25 54 30 Q58 35 62 30 Q66 25 68 30" stroke="#3D2317" stroke-width="2" fill="none"/>
    <!-- Side hair -->
    <path d="M8 30 Q2 45 5 65 Q8 55 10 45 Q12 38 8 30Z" fill="#1A0F0A" stroke="#333333" stroke-width="1.5"/>
    <path d="M68 30 Q74 45 71 65 Q68 55 66 45 Q64 38 68 30Z" fill="#1A0F0A" stroke="#333333" stroke-width="1.5"/>
    
    <!-- Sakura flower accessory -->
    <g transform="translate(58, 12)">
      <ellipse cx="0" cy="-8" rx="4" ry="6" fill="#FFB7C5" stroke="#FF69B4" stroke-width="1"/>
      <ellipse cx="7" cy="-3" rx="4" ry="6" fill="#FFB7C5" stroke="#FF69B4" stroke-width="1" transform="rotate(72)"/>
      <ellipse cx="5" cy="6" rx="4" ry="6" fill="#FFB7C5" stroke="#FF69B4" stroke-width="1" transform="rotate(144)"/>
      <ellipse cx="-5" cy="6" rx="4" ry="6" fill="#FFB7C5" stroke="#FF69B4" stroke-width="1" transform="rotate(216)"/>
      <ellipse cx="-7" cy="-3" rx="4" ry="6" fill="#FFB7C5" stroke="#FF69B4" stroke-width="1" transform="rotate(288)"/>
      <circle cx="0" cy="0" r="4" fill="#FFEB3B"/>
      <!-- Petal details -->
      <circle cx="0" cy="-5" r="1" fill="#FF69B4" opacity="0.5"/>
    </g>
    
    <!-- Second small sakura -->
    <g transform="translate(50, 20) scale(0.6)">
      <ellipse cx="0" cy="-6" rx="3" ry="5" fill="#FFC0CB" stroke="#FF69B4" stroke-width="1"/>
      <ellipse cx="5" cy="-2" rx="3" ry="5" fill="#FFC0CB" stroke="#FF69B4" stroke-width="1" transform="rotate(72)"/>
      <ellipse cx="4" cy="5" rx="3" ry="5" fill="#FFC0CB" stroke="#FF69B4" stroke-width="1" transform="rotate(144)"/>
      <ellipse cx="-4" cy="5" rx="3" ry="5" fill="#FFC0CB" stroke="#FF69B4" stroke-width="1" transform="rotate(216)"/>
      <ellipse cx="-5" cy="-2" rx="3" ry="5" fill="#FFC0CB" stroke="#FF69B4" stroke-width="1" transform="rotate(288)"/>
      <circle cx="0" cy="0" r="3" fill="#FFEB3B"/>
    </g>
    
    <!-- Face features -->
    <!-- Large anime eyes (larger for female) -->
    <ellipse cx="26" cy="38" rx="9" ry="10" fill="#FFFFFF" stroke="#333333" stroke-width="1.5"/>
    <ellipse cx="50" cy="38" rx="9" ry="10" fill="#FFFFFF" stroke="#333333" stroke-width="1.5"/>
    <!-- Pupils -->
    <ellipse cx="27" cy="39" rx="6" ry="7" fill="#1A0F0A"/>
    <ellipse cx="51" cy="39" rx="6" ry="7" fill="#1A0F0A"/>
    <!-- Eye highlights -->
    <circle cx="29" cy="36" r="2.5" fill="#FFFFFF"/>
    <circle cx="53" cy="36" r="2.5" fill="#FFFFFF"/>
    <circle cx="25" cy="41" r="1" fill="#FFFFFF" opacity="0.6"/>
    <circle cx="49" cy="41" r="1" fill="#FFFFFF" opacity="0.6"/>
    <!-- Eyelashes -->
    <path d="M18 32 L16 29" stroke="#1A0F0A" stroke-width="1.5"/>
    <path d="M34 32 L36 29" stroke="#1A0F0A" stroke-width="1.5"/>
    <path d="M42 32 L40 29" stroke="#1A0F0A" stroke-width="1.5"/>
    <path d="M58 32 L60 29" stroke="#1A0F0A" stroke-width="1.5"/>
    <!-- Eyebrows -->
    <path d="M18 28 Q26 25 34 28" stroke="#1A0F0A" stroke-width="2" fill="none"/>
    <path d="M42 28 Q50 25 58 28" stroke="#1A0F0A" stroke-width="2" fill="none"/>
    <!-- Nose -->
    <path d="M38 45 L36 51 L40 51" stroke="#D4A59A" stroke-width="1.5" fill="none"/>
    <!-- Mouth (cute smile) -->
    <path d="M32 58 Q38 63 44 58" stroke="#CC7777" stroke-width="2" fill="none"/>
    <path d="M34 58 Q38 56 42 58" fill="#FF9999"/>
    <!-- Blush -->
    <ellipse cx="18" cy="50" rx="6" ry="3" fill="#FFB6C1" opacity="0.5"/>
    <ellipse cx="58" cy="50" rx="6" ry="3" fill="#FFB6C1" opacity="0.5"/>
    
    <!-- Ears -->
    <ellipse cx="8" cy="38" rx="5" ry="8" fill="#F5D0C5" stroke="#333333" stroke-width="1.5"/>
    <ellipse cx="68" cy="38" rx="5" ry="8" fill="#F5D0C5" stroke="#333333" stroke-width="1.5"/>
    
    <!-- Hair ribbon/bow accent -->
    <path d="M62 25 Q70 20 65 28 Q70 35 62 30" fill="#FF69B4" stroke="#FF1493" stroke-width="1"/>
  </g>
  
  <!-- Connection/Heart symbol between them -->
  <g transform="translate(185, 145)">
    <path d="M0 8 C0 3 5 -2 10 3 C15 -2 20 3 20 8 C20 15 10 22 10 22 C10 22 0 15 0 8Z" fill="#FF6B8A" stroke="#CC3355" stroke-width="1.5" transform="scale(0.8)"/>
  </g>
  
  <!-- Bottom text -->
  <text x="200" y="280" font-family="Arial, sans-serif" font-size="10" fill="#888888" text-anchor="middle">♡ 友情ollars ♡</text>
  <text x="200" y="293" font-family="Arial, sans-serif" font-size="8" fill="#AAAAAA" text-anchor="middle">PC級生style</text>
  
  <!-- Retro scanline effect (subtle) -->
  <g opacity="0.03">
    <line x1="0" y1="0" x2="400" y2="0" stroke="#000" stroke-width="1"/>
    <line x1="0" y1="2" x2="400" y2="2" stroke="#000" stroke-width="1"/>
    <line x1="0" y1="4" x2="400" y2="4" stroke="#000" stroke-width="1"/>
    <line x1="0" y1="6" x2="400" y2="6" stroke="#000" stroke-width="1"/>
    <line x1="0" y1="8" x2="400" y2="8" stroke="#000" stroke-width="1"/>
    <line x1="0" y1="10" x2="400" y2="10" stroke="#000" stroke-width="1"/>
  </g>
</svg>